<?xml version="1.0" standalone="no"?>
<!DOCTYPE svg PUBLIC "-//W3C//DTD SVG 20010904//EN"
 "http://www.w3.org/TR/2001/REC-SVG-20010904/DTD/svg10.dtd">
<svg version="1.0" xmlns="http://www.w3.org/2000/svg"
 width="260.000000pt" height="206.000000pt" viewBox="0 0 260.000000 206.000000"
 preserveAspectRatio="xMidYMid meet">

<g transform="translate(0.000000,206.000000) scale(0.100000,-0.100000)"
fill="#000000" stroke="none">
<path d="M1066 2043 c-77 -17 -131 -47 -196 -108 -30 -29 -69 -60 -86 -68 -43
-22 -91 -79 -104 -124 -15 -56 -32 -222 -25 -242 4 -9 11 -72 16 -141 7 -108
6 -127 -8 -142 -9 -10 -22 -18 -29 -18 -19 0 -28 -90 -13 -139 7 -22 15 -41
19 -41 4 0 13 25 20 55 16 65 33 67 40 4 l5 -44 18 70 c10 39 22 102 27 140
22 173 33 232 48 264 19 37 24 41 96 67 28 9 68 34 90 54 49 45 114 75 220
102 67 17 87 19 134 9 30 -6 69 -11 86 -11 34 -1 66 -20 66 -40 0 -15 61 -98
89 -122 18 -16 21 -30 23 -118 1 -55 2 -107 2 -116 1 -13 -11 -17 -54 -19 -69
-3 -143 -18 -197 -40 -38 -15 -44 -22 -58 -70 -26 -92 -16 -185 21 -185 8 0
19 12 24 26 6 14 14 23 19 20 5 -4 11 0 13 6 4 10 18 9 66 -3 47 -13 72 -15
104 -7 23 5 53 6 65 3 18 -4 25 0 33 20 11 28 22 31 39 11 15 -18 -2 -56 -24
-56 -18 0 -20 -40 -4 -85 10 -28 8 -39 -21 -101 -18 -38 -37 -70 -41 -72 -4
-2 -3 -17 3 -33 6 -17 8 -42 5 -57 -4 -21 -1 -31 14 -40 25 -16 25 -42 -1 -49
-10 -3 -26 -16 -35 -30 -18 -28 -76 -56 -98 -47 -8 3 -21 -6 -31 -22 -10 -14
-44 -53 -77 -86 -60 -60 -81 -69 -159 -70 -84 0 -102 6 -137 47 -19 22 -39 50
-44 63 -5 12 -17 25 -26 28 -41 13 -101 45 -117 63 -37 41 -117 178 -127 218
-6 23 -17 44 -25 47 -16 6 -19 -10 -4 -19 6 -3 10 -17 10 -30 0 -13 14 -60 30
-105 41 -110 39 -123 -17 -179 -27 -25 -59 -60 -73 -76 -41 -49 -190 -153
-270 -189 -41 -18 -120 -54 -175 -79 -55 -25 -130 -58 -167 -73 -48 -20 -68
-34 -68 -46 0 -17 24 -18 405 -18 l405 0 0 83 c0 46 5 88 11 94 6 6 10 53 10
114 0 57 3 112 6 123 5 17 8 16 29 -10 20 -25 23 -26 24 -10 0 14 30 -9 108
-86 59 -58 130 -120 157 -138 30 -20 41 -30 26 -27 -31 8 -86 -28 -134 -86
-20 -25 -37 -48 -37 -51 0 -3 89 -6 197 -6 169 0 199 2 215 17 17 15 19 15 36
0 10 -10 23 -17 27 -17 13 0 -74 86 -116 116 -31 21 -40 23 -64 14 -15 -6 -37
-7 -49 -4 -17 6 -12 10 31 25 53 18 249 147 318 210 22 20 55 44 73 53 29 15
33 15 38 1 4 -9 3 -38 0 -66 -4 -28 -11 -105 -16 -172 -6 -67 -13 -134 -16
-149 l-6 -28 461 0 462 0 -3 86 -3 86 -100 38 c-102 39 -254 94 -380 137 -95
32 -309 141 -351 178 l-33 30 6 85 c6 79 8 87 40 119 19 19 47 61 64 95 17 34
40 76 51 95 20 31 21 43 15 170 -14 300 -47 418 -154 561 -42 55 -155 155
-205 181 -33 17 -68 44 -168 128 -74 62 -189 82 -314 54z m502 -809 c30 -21
30 -49 0 -39 -13 4 -57 10 -98 14 -76 7 -78 14 -6 31 51 13 80 11 104 -6z
m310 -42 c2 -7 -2 -10 -12 -6 -9 3 -16 11 -16 16 0 13 23 5 28 -10z m-1194
-18 c13 -33 4 -42 -23 -25 -14 9 -9 41 8 41 5 0 12 -7 15 -16z m751 -24 c3 -5
-3 -10 -15 -10 -12 0 -18 5 -15 10 3 6 10 10 15 10 5 0 12 -4 15 -10z m39 -37
c61 -5 67 -8 51 -20 -25 -17 -58 -16 -125 7 -46 16 -50 19 -25 19 17 1 61 -2
99 -6z m23 -755 c-3 -8 -6 -5 -6 6 -1 11 2 17 5 13 3 -3 4 -12 1 -19z"/>
<path d="M864 1261 c-50 -46 -64 -79 -40 -96 9 -7 16 -24 16 -39 0 -24 3 -27
33 -25 79 6 171 -1 160 -12 -6 -6 -29 -13 -52 -16 -64 -9 -64 -27 0 -20 82 9
132 26 125 42 -3 8 0 15 7 18 7 2 12 12 12 23 0 12 6 18 18 17 15 -1 17 4 13
20 -4 12 -9 35 -13 50 -7 35 -28 46 -122 63 -107 19 -111 18 -157 -25z m167
-33 c34 -12 34 -12 9 -19 -14 -4 -40 -7 -58 -8 -18 -1 -56 -11 -83 -22 -27
-12 -52 -19 -55 -16 -12 11 14 40 52 57 46 22 89 24 135 8z m29 -88 c0 -5 -4
-10 -10 -10 -5 0 -10 5 -10 10 0 6 5 10 10 10 6 0 10 -4 10 -10z"/>
<path d="M1302 968 c-16 -16 -15 -41 1 -57 10 -10 7 -16 -13 -31 -28 -21 -81
-32 -94 -19 -11 10 -47 12 -70 3 -25 -10 -1 -32 43 -40 20 -4 49 -13 66 -22
19 -9 53 -14 92 -13 36 1 64 -3 68 -9 4 -6 5 -13 3 -15 -2 -3 -83 -7 -179 -10
-96 -3 -189 -8 -206 -11 -28 -4 -33 -2 -33 15 0 11 5 23 10 26 6 4 21 27 34
53 13 26 33 56 45 66 12 11 21 23 21 28 0 19 -40 -15 -111 -93 l-73 -81 23
-44 c24 -44 41 -57 41 -29 0 28 25 15 87 -45 34 -33 64 -60 68 -60 3 0 13 7
21 15 11 10 27 13 58 9 24 -4 46 -2 49 2 3 5 -24 10 -60 11 -62 2 -93 14 -93
35 0 5 5 6 10 3 6 -3 10 -1 10 5 0 6 -12 15 -27 21 -55 21 -8 32 137 34 l140
2 0 -24 c0 -14 -4 -21 -10 -18 -5 3 -20 -1 -32 -10 -23 -17 -23 -17 -1 -11 12
4 24 2 28 -3 3 -6 -13 -16 -39 -23 -44 -12 -62 -28 -31 -28 9 0 12 -6 9 -15
-15 -39 102 6 133 51 11 16 23 37 26 46 3 10 29 32 57 49 27 17 50 35 50 39 0
13 -85 70 -103 70 -31 0 -47 13 -47 39 0 33 -8 45 -50 76 -39 29 -42 29 -58
13z m58 -67 c0 -23 -9 -31 -26 -24 -17 6 -18 25 -2 41 14 14 28 6 28 -17z
m140 -106 c11 -13 8 -15 -14 -15 -25 0 -33 10 -19 23 10 11 19 8 33 -8z"/>
</g>
</svg>
